<svg xmlns="http://www.w3.org/2000/svg" version="1.1" xmlns:xlink="http://www.w3.org/1999/xlink" xmlns:svgjs="http://svgjs.dev/svgjs" width="2000" height="1500" viewBox="0 0 2000 1500"><rect width="2000" height="1500" fill="#ffffff"></rect><g transform="matrix(0.75,0,0,0.75,251.40893612068567,447.6708592617083)"><svg viewBox="0 0 205 83" data-background-color="#ffffff" preserveAspectRatio="xMidYMid meet" height="809" width="2000" xmlns="http://www.w3.org/2000/svg" xmlns:xlink="http://www.w3.org/1999/xlink"><g id="tight-bounds" transform="matrix(1,0,0,1,-0.19255460316037443,-0.14306768639767142)"><svg viewBox="0 0 205.38510920632075 83.28613537279534" height="83.28613537279534" width="205.38510920632075"><g><svg viewBox="0 0 205.38510920632075 83.28613537279534" height="83.28613537279534" width="205.38510920632075"><g><svg viewBox="0 0 205.38510920632075 83.28613537279534" height="83.28613537279534" width="205.38510920632075"><g id="textblocktransform"><svg viewBox="0 0 205.38510920632075 83.28613537279534" height="83.28613537279534" width="205.38510920632075" id="textblock"><g><svg viewBox="0 0 205.38510920632075 52.07863805668017" height="52.07863805668017" width="205.38510920632075"><g><svg><g></g><g></g></svg></g><g><svg><g><svg></svg></g><g></g></svg></g><g id="text-0"><svg viewBox="0 0 205.38510920632075 52.07863805668017" height="52.07863805668017" width="205.38510920632075"><g transform="matrix(1,0,0,1,0,0)"><svg width="90.30810920632074" viewBox="-1.35 -35.5 62.6 36.1" height="52.07863805668017" data-palette-color="#0074d9"><path d="M3-0.65L3-0.65Q2.65 0.45 1.43 0.45 0.2 0.45-1.35-0.9L-1.35-0.9Q0.15-5.3 5-15.08 9.85-24.85 11.3-29.7L11.3-29.7Q11.5-30.5 11.5-30.8L11.5-30.8Q11.5-31.55 10.4-33.1L10.4-33.1 10-33.65 10.1-34.3Q14.35-35.5 19.5-35.5L19.5-35.5 22.55-35.3Q23.1-34.55 23.4-33L23.4-33Q24.2-29.2 24.2-13.45L24.2-13.45Q24.2-7.35 25.25-4.85L25.25-4.85Q25.65-3.9 26.05-3.9 26.45-3.9 28.5-4.9L28.5-4.9 29.15-5.2 30.15-3.4Q28.25-1.55 25.93-0.48 23.6 0.6 21.65 0.6L21.65 0.6Q16.6 0.6 16.6-7.25L16.6-7.25 16.6-11.2Q15.3-11.5 12.65-11.5 10-11.5 6.85-11L6.85-11Q4.35-5.2 3-0.65ZM8.45-14.6L16.7-14.6 16.75-20.4Q16.75-28 16.1-30.7L16.1-30.7Q15.7-30.7 15.5-30.6L15.5-30.6Q14.1-26.75 12.88-24.08 11.65-21.4 10.23-18.38 8.8-15.35 8.45-14.6L8.45-14.6ZM31.95 0.2L31.95 0.2 31 0.2Q31.2-2.05 33.65-13.03 36.1-24 36.7-29.45L36.7-29.45Q36.7-30.25 36.17-31.38 35.65-32.5 35.1-33.2L35.1-33.2 34.6-33.9 34.75-34.65Q37.55-35.5 44.4-35.5L44.4-35.5Q45.05-34.3 45.05-33.15 45.05-32 44.85-30.3L44.85-30.3Q51.1-35.5 55.05-35.5L55.05-35.5Q57.65-35.5 59.25-33.8 60.85-32.1 60.85-29.05 60.85-26 58.72-17.43 56.6-8.85 56.6-5.45L56.6-5.45Q56.6-4 57.1-4L57.1-4Q57.55-4 59.6-5L59.6-5 60.25-5.3 61.25-3.45Q59.15-1.65 56.9-0.53 54.65 0.6 52.82 0.6 51 0.6 49.85-0.73 48.7-2.05 48.7-4.33 48.7-6.6 50.77-15.65 52.85-24.7 52.85-27.2 52.85-29.7 50.9-29.7L50.9-29.7Q47.95-29.7 44.2-26.75L44.2-26.75Q43.65-24.1 42.15-17.9L42.15-17.9Q38.85-4.25 38.85-0.8L38.85-0.8Q36.9 0.2 31.95 0.2Z" opacity="1" transform="matrix(1,0,0,1,0,0)" fill="#0074d9" class="wordmark-text-0" data-fill-palette-color="primary"></path></svg></g><g><svg xmlns="http://www.w3.org/2000/svg" xmlns:xlink="http://www.w3.org/1999/xlink" version="1.1" x="104.09830920632074" y="0" viewBox="0.6 24.599999999999998 98.80000000000001 50.80000000000001" enable-background="new 0 0 100 100" xml:space="preserve" height="52.07863805668017" width="101.28680000000001" class="icon-cg-0" data-fill-palette-color="accent" id="cg-0"><path d="M46.5 75.4v-4.6c0-2 0.9-3.9 2.5-5.2 1.4-1.1 2.7-2.1 4-3H11.1v-4.7-1.6V30.8c0 0 0 0 0 0h29.4 0 20.4c0 0 0 0 0 0v7.1c1.4-0.7 2.9-1.2 4.5-1.2h1.4c0.1 0 0.1 0 0.2 0v-5.9c0-3.4-2.8-6.2-6.2-6.2H37.8h0H11.2c-3.4 0-6.2 2.8-6.2 6.2v25.4 1.4 4.6c0 0.8-0.3 1.6-0.8 2.2L1 68.3c-0.2 0.3-0.4 0.7-0.4 1v1.8c0 2.3 1.9 4.2 4.2 4.2H46.5zM29.3 68.8h13.4v0.5c0 1.2-1 2.1-2.1 2.1h-9.1c-1.2 0-2.1-1-2.1-2.1V68.8zM98.4 64.5c0.6 0.5 1 1.3 1 2.2v4H86.2c-0.1-2-1-3.9-2.5-5.2-2.2-1.8-4.5-3.3-6.3-4.4 1.6-1 2.8-1.6 3.2-1.8 0.1 0 0.1-0.1 0.1-0.2v-5.6c-0.7-0.5-1.2-1.3-1.2-2.2v-5.8c0-2.9 2.3-5.2 5.2-5.2h0.6H86c2.9 0 5.2 2.3 5.2 5.2v5.8c0 0.9-0.5 1.7-1.2 2.2V59c0 0.1 0.1 0.2 0.1 0.2C90.9 59.6 94.8 61.5 98.4 64.5zM71.6 55.5v6.4c0 0.1 0.1 0.2 0.2 0.3 0.9 0.4 5.4 2.7 9.5 6.1 0.7 0.6 1.2 1.5 1.2 2.5v4.6H68.4L67 69c2.8-3.9-0.2-4.1-0.7-4.1h0 0c-0.5 0-3.6 0.2-0.7 4.1l-1.4 6.4H50v-4.6c0-1 0.4-1.9 1.2-2.5 4.1-3.4 8.6-5.7 9.5-6.1 0.1-0.1 0.2-0.2 0.2-0.3v-6.4C60 54.9 59.5 54 59.5 53v-6.7c0-3.3 2.7-6 6-6h0.7 0.7c3.3 0 6 2.7 6 6V53C73 54 72.4 54.9 71.6 55.5z" fill="#6b7280" data-fill-palette-color="accent"></path></svg></g></svg></g></svg></g><g transform="matrix(1,0,0,1,39.02317074920094,64.373154614549)"><svg viewBox="0 0 127.33876770791886 18.91298075824634" height="18.91298075824634" width="127.33876770791886"><g transform="matrix(1,0,0,1,0,0)"><svg width="127.33876770791886" viewBox="2.65 -36 245.73 36.5" height="18.91298075824634" data-palette-color="#0074d9"><path d="M2.65-34.3L15.55-34.3 15.55-29.85 11.55-29.85 11.55-4.45 15.55-4.45 15.55 0 2.65 0 2.65-4.45 6.65-4.45 6.65-29.85 2.65-29.85 2.65-34.3ZM19.45-34.3L45.85-34.3 45.85-29.85 35.1-29.85 35.1 0 30.2 0 30.2-29.85 19.45-29.85 19.45-34.3ZM74.99-34.8Q80.64-34.8 83.87-32.3 87.09-29.8 87.09-25.2L87.09-25.2 87.09-24.6 82.19-24.6 82.19-25.35Q82.19-27.75 80.24-29.05 78.29-30.35 75.09-30.35L75.09-30.35Q71.54-30.35 69.57-29.18 67.59-28 67.59-25.8L67.59-25.8Q67.59-24.15 68.72-23.1 69.84-22.05 71.52-21.45 73.19-20.85 76.14-20.1L76.14-20.1Q79.94-19.1 82.29-18.15 84.64-17.2 86.32-15.3 87.99-13.4 87.99-10.25L87.99-10.25Q87.99-4.65 84.57-2.08 81.14 0.5 74.94 0.5L74.94 0.5Q68.74 0.5 65.32-2.13 61.89-4.75 61.89-9.75L61.89-9.75 61.94-10.75 66.84-10.75 66.79-9.7Q66.79-6.8 68.97-5.38 71.14-3.95 74.99-3.95L74.99-3.95Q78.74-3.95 80.92-5.33 83.09-6.7 83.09-9.1L83.09-9.1Q83.09-11 81.92-12.18 80.74-13.35 78.97-14 77.19-14.65 74.14-15.45L74.14-15.45Q70.39-16.45 68.14-17.35 65.89-18.25 64.29-20.13 62.69-22 62.69-25.05L62.69-25.05Q62.69-30 66.04-32.4 69.39-34.8 74.99-34.8L74.99-34.8ZM104.99-26.05Q110.34-26.05 113.54-22.75 116.74-19.45 116.74-13.7L116.74-13.7 116.74-11.85Q116.74-6.1 113.59-2.8 110.44 0.5 104.99 0.5L104.99 0.5Q99.54 0.5 96.39-2.8 93.24-6.1 93.24-11.85L93.24-11.85 93.24-13.7Q93.24-19.45 96.44-22.75 99.64-26.05 104.99-26.05L104.99-26.05ZM104.99-22.3Q101.64-22.3 99.79-20 97.94-17.7 97.94-13.25L97.94-13.25 97.94-12.3Q97.94-7.95 99.77-5.6 101.59-3.25 104.99-3.25L104.99-3.25Q108.29-3.25 110.17-5.58 112.04-7.9 112.04-12.3L112.04-12.3 112.04-13.25Q112.04-17.6 110.22-19.95 108.39-22.3 104.99-22.3L104.99-22.3ZM123.69-36L128.39-36 128.39 0 123.69 0 123.69-36ZM158.24-25.55L158.24-5Q158.24-4.1 158.64-3.68 159.04-3.25 159.64-3.25L159.64-3.25Q160.74-3.25 161.89-3.95L161.89-3.95 161.89-0.5Q160.34 0.5 158.74 0.5L158.74 0.5Q156.04 0.5 154.96-0.6 153.89-1.7 153.79-3.7L153.79-3.7Q152.44-1.7 150.31-0.6 148.19 0.5 145.44 0.5L145.44 0.5Q141.59 0.5 139.11-1.78 136.64-4.05 136.64-8.35L136.64-8.35 136.64-25.55 141.34-25.55 141.34-9.2Q141.34-3.25 146.74-3.25L146.74-3.25Q148.49-3.25 150.06-4.2 151.64-5.15 152.59-6.78 153.54-8.4 153.54-10.35L153.54-10.35 153.54-25.55 158.24-25.55ZM173.28-33.7L173.28-25.55 179.23-25.55 179.23-21.8 173.28-21.8 173.28-6.55Q173.28-4.75 173.98-3.95 174.68-3.15 176.13-3.15L176.13-3.15Q177.43-3.15 179.23-3.9L179.23-3.9 179.23-0.4Q177.43 0.5 174.58 0.5L174.58 0.5Q171.63 0.5 170.11-1.25 168.58-3 168.58-6.8L168.58-6.8 168.58-21.8 165.78-21.8 165.78-25.55 168.73-25.55 170.33-33.7 173.28-33.7ZM184.98-36L189.88-36 189.88-31.65 184.98-31.65 184.98-36ZM185.08-25.55L189.78-25.55 189.78 0 185.08 0 185.08-25.55ZM208.28-26.05Q213.63-26.05 216.83-22.75 220.03-19.45 220.03-13.7L220.03-13.7 220.03-11.85Q220.03-6.1 216.88-2.8 213.73 0.5 208.28 0.5L208.28 0.5Q202.83 0.5 199.68-2.8 196.53-6.1 196.53-11.85L196.53-11.85 196.53-13.7Q196.53-19.45 199.73-22.75 202.93-26.05 208.28-26.05L208.28-26.05ZM208.28-22.3Q204.93-22.3 203.08-20 201.23-17.7 201.23-13.25L201.23-13.25 201.23-12.3Q201.23-7.95 203.05-5.6 204.88-3.25 208.28-3.25L208.28-3.25Q211.58-3.25 213.45-5.58 215.33-7.9 215.33-12.3L215.33-12.3 215.33-13.25Q215.33-17.6 213.5-19.95 211.68-22.3 208.28-22.3L208.28-22.3ZM239.38-26.05Q243.58-26.05 245.98-23.8 248.38-21.55 248.38-17.2L248.38-17.2 248.38 0 243.68 0 243.68-16.35Q243.68-22.3 238.28-22.3L238.28-22.3Q236.48-22.3 234.93-21.35 233.38-20.4 232.43-18.78 231.48-17.15 231.48-15.2L231.48-15.2 231.48 0 226.78 0 226.78-25.55 230.18-25.55 230.83-21.8Q234.03-26.05 239.38-26.05L239.38-26.05Z" opacity="1" transform="matrix(1,0,0,1,0,0)" fill="#0074d9" class="slogan-text-1" data-fill-palette-color="secondary" id="text-1"></path></svg></g></svg></g></svg></g></svg></g><g></g></svg></g><defs></defs></svg><rect width="205.38510920632075" height="83.28613537279534" fill="none" stroke="none" visibility="hidden"></rect></g></svg></g></svg>